PathFileType	4	(x/y/z)	S08_PSF_T04
DataRate	CameraRate	NumFrames	NumMarkers	Units	OrigDataRate	OrigDataStartFrame	OrigNumFrames
240	240	11	51	mm	240	263	420
Frame#	Time	Sternum			R.Acromium			L.Acromium			Top.Head			R.ASIS			L.ASIS			R.PSIS			L.PSIS			R.Great.Tro			L.Great.Tro			R.Iliac.Crest			L.Iliac.Crest			V.Sacral			R.Thigh.Upper.Post			R.Thigh.Lower.Ant			R.Thigh.Lower.Post			R.Thigh.Upper.Ant			R.Knee.Lat			R.Knee.Med			R.Shank.Upper.Post			R.Shank.Lower.Ant			R.Shank.Lower.Post			R.Shank.Upper.Ant			R.Ankle.Lat			R.Ankle.Med			R.Heel.Upper			R.Heel.Med			R.Heel.Lat			R.Toe.Lat			R.Toe.Med			R.Toe.Tip			L.Thigh.Upper.Post			L.Thigh.Lower.Ant			L.Thigh.Lower.Post			L.Thigh.Upper.Ant			L.Knee.Lat			L.Knee.Med			L.Shank.Upper.Post			L.Shank.Lower.Ant			L.Shank.Lower.Post			L.Shank.Upper.Ant			L.Ankle.Lat			L.Ankle.Med			L.Heel.Upper			L.Heel.Med			L.Heel.Lat			L.Toe.Lat			L.Toe.Med			L.Toe.Tip			Cervical.Spine			Back			
		X1	Y1	Z1	X2	Y2	Z2	X3	Y3	Z3	X4	Y4	Z4	X5	Y5	Z5	X6	Y6	Z6	X7	Y7	Z7	X8	Y8	Z8	X9	Y9	Z9	X10	Y10	Z10	X11	Y11	Z11	X12	Y12	Z12	X13	Y13	Z13	X14	Y14	Z14	X15	Y15	Z15	X16	Y16	Z16	X17	Y17	Z17	X18	Y18	Z18	X19	Y19	Z19	X20	Y20	Z20	X21	Y21	Z21	X22	Y22	Z22	X23	Y23	Z23	X24	Y24	Z24	X25	Y25	Z25	X26	Y26	Z26	X27	Y27	Z27	X28	Y28	Z28	X29	Y29	Z29	X30	Y30	Z30	X31	Y31	Z31	X32	Y32	Z32	X33	Y33	Z33	X34	Y34	Z34	X35	Y35	Z35	X36	Y36	Z36	X37	Y37	Z37	X38	Y38	Z38	X39	Y39	Z39	X40	Y40	Z40	X41	Y41	Z41	X42	Y42	Z42	X43	Y43	Z43	X44	Y44	Z44	X45	Y45	Z45	X46	Y46	Z46	X47	Y47	Z47	X48	Y48	Z48	X49	Y49	Z49	X50	Y50	Z50	X51	Y51	Z51	

263	1.0917	-67.077	1196.8	350.54	-171.78	1438.7	523.24	-188.68	1464.4	186.95	-173.41	1758.7	360.48	-103.24	987.52	468.37	-85.474	992.1	235.07	-296.53	1012.5	373.97	-287.22	1015.2	280.92	-193.18	885.2	529.55	-162.31	883.41	160.13	-199.93	1057.7	503.64	-178.63	1071.2	196.04	-308.34	973.43	325.94	-267.21	702.77	506.14	-217.81	587.05	473.89	-283.45	615.19	483.12	-193.21	676.46	499.18	-282.08	500.83	459.98	-294.66	513.95	332.2	-416.81	356.36	456.66	-383.53	275.61	433.27	-447.01	286.48	444.85	-352.55	345.51	447	-511.33	128.9	396.99	-476.69	138.61	322.24	-570.44	101.71	346.39	-559.69	72.66	320.16	-568.54	76.085	381.32	NaN	NaN	NaN	-377.11	43.417	316.96	-312.64	45.819	366.66	-107.52	678.82	174.09	3.7078	624.31	199.94	-61.631	602.12	193.48	-37.725	699.84	174.91	-5.1685	515.39	213.21	-7.8437	513.61	339.35	3.8535	327.46	210.12	97.88	270.17	231.69	26.8	258.28	224.81	68.089	339.44	217.35	115.34	103.95	237.92	132.73	119.18	324.6	71.175	63.967	285.18	96.179	36.734	318.74	90.431	40.059	254.96	260.12	84.979	228.26	271.31	99.229	341.62	325.57	137.8	295.05	-244.42	1498.9	352.09	-301.69	1217.6	362.95
264	1.0958	-60.997	1196.5	350.16	-165.95	1438.4	522.84	-183.1	1464	186.49	-167.98	1758.4	360.03	-97.016	987.14	468.04	-79.355	991.85	234.74	-290.33	1012.3	373.68	-281.07	1015	280.62	-187.25	884.82	529.1	-156.23	883.25	159.8	-193.72	1057.3	503.37	-172.5	1071	195.71	-302.19	973.27	325.6	-261.33	702.43	505.64	-211.78	586.63	473.85	-277.46	614.8	482.72	-187.29	676.1	499	-276.11	500.5	459.96	-288.22	513.36	332.15	-412.3	357.45	456.69	-380.02	276.25	433.46	-443.32	287.92	444.99	-348.19	345.84	447.15	-509.58	131	397.46	-474.48	140.28	322.77	-569.06	104.73	346.74	-558.58	75.692	320.45	-567.41	78.902	381.61	NaN	NaN	NaN	-376.77	43.562	317.1	-312.38	45.457	366.7	-101.64	678.74	174.18	9.5336	624.16	200.12	-55.824	602.02	193.67	-31.821	699.7	175	0.43223	515.17	213.43	-2.2796	513.52	339.49	8.2004	327.19	210.27	101.7	269.18	232.05	30.587	257.84	224.97	72.488	338.67	217.72	117.71	103.1	238.08	135.21	118.04	324.9	73.035	64.404	285.46	97.429	36.686	318.94	91.761	40.218	255.15	262.06	82.12	228.64	273.42	95.949	341.95	328.28	133.81	295.55	-238.73	1498.5	351.69	-295.66	1217.2	362.65
265	1.1	-54.9	1196.3	349.77	-160.11	1438.1	522.43	-177.53	1463.6	186.02	-162.53	1758.2	359.58	-90.741	986.81	467.68	-73.224	991.68	234.39	-284.1	1012.1	373.39	-274.9	1015	280.32	-181.24	884.47	528.64	-150.13	883.18	159.46	-187.46	1057	503.1	-166.36	1070.9	195.38	-296.02	973.18	325.26	-255.3	702.09	505.14	-205.59	586.22	473.82	-271.3	614.39	482.34	-181.23	675.77	498.8	-269.95	500.18	459.96	-281.61	512.77	332.14	-407.61	358.59	456.73	-376.36	276.95	433.69	-439.47	289.44	445.15	-343.68	346.22	447.34	-507.68	133.21	397.98	-472.13	142.02	323.35	-567.49	107.91	347.15	-557.34	78.912	320.76	-566.16	81.897	381.93	NaN	NaN	NaN	-376.41	43.728	317.26	-312.13	45.111	366.74	-95.713	678.76	174.26	15.39	624.1	200.3	-49.984	602.02	193.83	-25.879	699.66	175.09	6.0651	515.02	213.62	3.2647	513.48	339.61	12.52	327.01	210.38	105.46	268.25	232.39	34.31	257.48	225.06	76.859	337.96	218.07	119.9	102.3	238.21	137.51	116.92	325.16	74.706	64.894	285.71	98.462	36.682	319.11	92.874	40.423	255.29	263.8	79.212	228.97	275.33	92.606	342.24	330.8	129.7	296.02	-233.03	1498.3	351.28	-289.61	1216.8	362.35
266	1.1042	-48.787	1196.2	349.36	-154.27	1437.8	522.02	-171.95	1463.3	185.55	-157.08	1758	359.13	-84.423	986.55	467.3	-67.084	991.6	234.02	-277.84	1012	373.13	-268.72	1015	280.03	-175.15	884.15	528.16	-144.02	883.2	159.1	-181.15	1056.7	502.83	-160.22	1070.9	195.05	-289.83	973.16	324.94	-249.13	701.74	504.66	-199.22	585.83	473.78	-264.98	613.98	481.97	-175.01	675.46	498.59	-263.6	499.86	459.98	-274.84	512.18	332.15	-402.74	359.79	456.8	-372.55	277.7	433.96	-435.44	291.03	445.34	-339	346.64	447.56	-505.63	135.52	398.55	-469.63	143.83	323.97	-565.71	111.27	347.6	-555.95	82.327	321.11	-564.75	85.076	382.28	NaN	NaN	NaN	-376.03	43.916	317.43	-311.89	44.782	366.78	-89.756	678.87	174.31	21.27	624.12	200.48	-44.117	602.1	193.97	-19.904	699.7	175.19	11.723	514.96	213.79	8.7745	513.5	339.7	16.821	326.92	210.43	109.17	267.37	232.71	37.984	257.21	225.1	81.208	337.31	218.39	121.92	101.55	238.3	139.66	115.83	325.38	76.217	65.429	285.94	99.318	36.72	319.24	93.809	40.671	255.4	265.34	76.287	229.26	277.06	89.238	342.49	333.16	125.52	296.43	-227.33	1498	350.87	-283.54	1216.5	362.05
267	1.1083	-42.662	1196.2	348.94	-148.42	1437.7	521.61	-166.39	1463	185.07	-151.61	1758	358.69	-78.063	986.35	466.89	-60.939	991.6	233.63	-271.56	1012	372.88	-262.53	1015.1	279.77	-168.98	883.85	527.67	-137.89	883.32	158.73	-174.81	1056.5	502.56	-154.07	1071	194.73	-283.62	973.22	324.62	-242.81	701.38	504.2	-192.66	585.46	473.74	-258.47	613.54	481.63	-168.64	675.18	498.37	-257.04	499.54	460.02	-267.88	511.58	332.2	-397.68	361.03	456.9	-368.56	278.5	434.27	-431.23	292.67	445.55	-334.15	347.1	447.81	-503.41	137.93	399.17	-466.97	145.71	324.64	-563.69	114.79	348.12	-554.4	85.94	321.48	-563.19	88.446	382.66	NaN	NaN	NaN	-375.61	44.131	317.61	-311.64	44.469	366.82	-83.771	679.07	174.34	27.167	624.23	200.64	-38.23	602.26	194.07	-13.9	699.83	175.29	17.398	514.98	213.92	14.238	513.57	339.76	21.11	326.91	210.43	112.83	266.55	233	41.619	257.02	225.09	85.541	336.73	218.68	123.79	100.86	238.36	141.68	114.79	325.55	77.596	66.003	286.14	100.03	36.799	319.34	94.597	40.956	255.48	266.73	73.377	229.52	278.65	85.879	342.7	335.37	121.32	296.81	-221.63	1497.9	350.46	-277.46	1216.2	361.74
268	1.1125	-36.529	1196.2	348.5	-142.57	1437.6	521.19	-160.82	1462.9	184.6	-146.14	1757.9	358.26	-71.665	986.21	466.46	-54.791	991.69	233.23	-265.25	1012.1	372.64	-256.32	1015.2	279.51	-162.72	883.58	527.17	-131.76	883.53	158.35	-168.43	1056.4	502.3	-147.92	1071.1	194.41	-277.4	973.35	324.33	-236.34	701	503.76	-185.9	585.09	473.69	-251.78	613.09	481.3	-162.11	674.91	498.14	-250.27	499.22	460.08	-260.75	510.98	332.28	-392.41	362.32	457.02	-364.4	279.36	434.62	-426.82	294.39	445.8	-329.12	347.6	448.1	-501	140.45	399.84	-464.16	147.66	325.37	-561.41	118.48	348.69	-552.68	89.758	321.89	-561.45	92.014	383.07	NaN	NaN	NaN	-375.15	44.377	317.8	-311.4	44.17	366.85	-77.762	679.36	174.33	33.076	624.41	200.78	-32.327	602.5	194.13	-7.873	700.05	175.39	23.086	515.07	214.02	19.648	513.69	339.78	25.388	326.99	210.37	116.46	265.8	233.27	45.22	256.91	225.02	89.86	336.22	218.93	125.55	100.23	238.4	143.59	113.8	325.69	78.863	66.606	286.33	100.62	36.915	319.41	95.268	41.275	255.53	267.98	70.508	229.73	280.09	82.561	342.88	337.44	117.13	297.14	-215.93	1497.8	350.05	-271.37	1216	361.44
269	1.1167	-30.391	1196.4	348.06	-136.72	1437.5	520.77	-155.26	1462.8	184.12	-140.66	1758	357.82	-65.234	986.14	466.01	-48.644	991.86	232.81	-258.92	1012.2	372.43	-250.11	1015.5	279.28	-156.38	883.33	526.66	-125.61	883.84	157.95	-162.02	1056.3	502.03	-141.78	1071.4	194.09	-271.17	973.56	324.05	-229.71	700.61	503.33	-178.95	584.73	473.65	-244.9	612.62	481	-155.41	674.67	497.9	-243.28	498.89	460.17	-253.42	510.36	332.4	-386.92	363.65	457.16	-360.03	280.26	435.01	-422.2	296.16	446.08	-323.88	348.13	448.44	-498.39	143.07	400.57	-461.16	149.69	326.14	-558.85	122.35	349.32	-550.76	93.782	322.34	-559.52	95.787	383.52	NaN	NaN	NaN	-374.66	44.659	317.99	-311.16	43.883	366.87	-71.733	679.74	174.28	38.993	624.67	200.91	-26.414	602.83	194.13	-1.8272	700.36	175.47	28.781	515.23	214.08	24.998	513.87	339.77	29.656	327.14	210.26	120.04	265.11	233.51	48.79	256.88	224.9	94.16	335.78	219.14	127.18	99.668	238.42	145.38	112.86	325.8	80.034	67.227	286.51	101.12	37.064	319.45	95.843	41.619	255.57	269.1	67.71	229.92	281.41	79.313	343.04	339.37	113	297.44	-210.24	1497.7	349.63	-265.28	1215.8	361.14
270	1.1208	-24.253	1196.5	347.6	-130.86	1437.6	520.35	-149.69	1462.7	183.65	-135.16	1758.1	357.4	-58.774	986.12	465.54	-42.5	992.13	232.37	-252.58	1012.3	372.23	-243.9	1015.8	279.06	-149.97	883.11	526.14	-119.46	884.24	157.54	-155.58	1056.2	501.77	-135.65	1071.7	193.77	-264.93	973.83	323.78	-222.92	700.2	502.93	-171.8	584.39	473.62	-237.83	612.13	480.72	-148.54	674.45	497.66	-236.06	498.55	460.29	-245.9	509.74	332.55	-381.21	365.02	457.34	-355.46	281.21	435.45	-417.36	297.99	446.39	-318.43	348.69	448.81	-495.57	145.8	401.34	-457.98	151.78	326.95	-556	126.4	350.01	-548.63	98.018	322.83	-557.38	99.77	384	NaN	NaN	NaN	-374.11	44.984	318.2	-310.91	43.607	366.89	-65.689	680.19	174.18	44.914	625.01	201.01	-20.493	603.23	194.09	4.2334	700.74	175.54	34.478	515.45	214.11	30.288	514.1	339.72	33.907	327.36	210.09	123.59	264.48	233.72	52.325	256.92	224.73	98.439	335.4	219.32	128.72	99.168	238.42	147.08	111.98	325.88	81.12	67.857	286.67	101.54	37.241	319.48	96.342	41.982	255.58	270.12	65.004	230.07	282.62	76.159	343.16	341.18	108.96	297.7	-204.55	1497.7	349.21	-259.18	1215.7	360.84
271	1.125	-18.119	1196.8	347.13	-125.01	1437.7	519.93	-144.13	1462.8	183.18	-129.65	1758.3	356.98	-52.29	986.17	465.05	-36.363	992.48	231.92	-246.22	1012.5	372.05	-237.69	1016.2	278.87	-143.47	882.92	525.62	-113.31	884.73	157.13	-149.11	1056.3	501.51	-129.53	1072.1	193.47	-258.69	974.17	323.54	-215.98	699.77	502.55	-164.45	584.05	473.59	-230.57	611.61	480.48	-141.5	674.24	497.41	-228.61	498.2	460.44	-238.17	509.1	332.74	-375.26	366.43	457.56	-350.66	282.21	435.94	-412.29	299.86	446.74	-312.76	349.27	449.22	-492.52	148.63	402.17	-454.6	153.95	327.81	-552.84	130.63	350.77	-546.27	102.47	323.35	-555.02	103.97	384.52	NaN	NaN	NaN	-373.51	45.357	318.41	-310.66	43.338	366.91	-59.632	680.72	174.03	50.836	625.42	201.08	-14.568	603.7	193.99	10.305	701.2	175.59	40.174	515.74	214.1	35.52	514.38	339.63	38.136	327.65	209.87	127.09	263.92	233.9	55.821	257.04	224.51	102.69	335.07	219.46	130.16	98.729	238.41	148.68	111.17	325.94	82.129	68.487	286.82	101.91	37.44	319.49	96.78	42.358	255.58	271.04	62.411	230.2	283.72	73.12	343.27	342.87	105.04	297.93	-198.86	1497.8	348.8	-253.08	1215.7	360.55
272	1.1292	-11.993	1197.2	346.66	-119.16	1437.9	519.51	-138.57	1462.9	182.72	-124.14	1758.5	356.56	-45.787	986.28	464.53	-30.236	992.92	231.46	-239.86	1012.8	371.89	-231.48	1016.7	278.69	-136.9	882.75	525.08	-107.16	885.32	156.7	-142.63	1056.3	501.26	-123.43	1072.6	193.16	-252.45	974.57	323.31	-208.87	699.32	502.2	-156.89	583.72	473.57	-223.11	611.07	480.26	-134.3	674.06	497.16	-220.93	497.84	460.62	-230.24	508.44	332.96	-369.06	367.86	457.8	-345.64	283.24	436.47	-406.98	301.79	447.13	-306.85	349.87	449.67	-489.24	151.57	403.06	-451.01	156.18	328.72	-549.35	135.03	351.58	-543.66	107.13	323.93	-552.41	108.39	385.09	NaN	NaN	NaN	-372.85	45.788	318.64	-310.39	43.072	366.93	-53.568	681.32	173.82	56.756	625.88	201.13	-8.6413	604.23	193.84	16.382	701.73	175.61	45.861	516.07	214.05	40.698	514.71	339.51	42.331	327.99	209.61	130.54	263.4	234.06	59.27	257.21	224.26	106.89	334.8	219.56	131.5	98.35	238.39	150.19	110.41	325.97	83.068	69.105	286.96	102.22	37.655	319.49	97.169	42.739	255.57	271.88	59.95	230.3	284.73	70.213	343.35	344.44	101.27	298.13	-193.18	1497.9	348.39	-246.98	1215.7	360.26
273	1.1333	-5.8778	1197.6	346.17	-113.31	1438.1	519.08	-133.01	1463.1	182.26	-118.61	1758.8	356.15	-39.269	986.45	464	-24.123	993.44	230.98	-233.49	1013.1	371.75	-225.29	1017.2	278.54	-130.26	882.6	524.55	-101.03	885.99	156.26	-136.12	1056.4	501	-117.34	1073.1	192.87	-246.21	975.03	323.1	-201.61	698.85	501.87	-149.13	583.4	473.56	-215.47	610.51	480.08	-126.93	673.89	496.91	-213.01	497.46	460.85	-222.1	507.77	333.21	-362.62	369.33	458.09	-340.37	284.32	437.05	-401.42	303.76	447.56	-300.7	350.49	450.16	-485.7	154.62	404	-447.21	158.48	329.66	-545.54	139.62	352.46	-540.8	112.01	324.54	-549.53	113.03	385.71	NaN	NaN	NaN	-372.13	46.285	318.87	-310.11	42.807	366.94	-47.501	681.98	173.56	62.67	626.41	201.14	-2.718	604.82	193.62	22.461	702.32	175.59	51.531	516.45	213.97	45.828	515.08	339.35	46.484	328.38	209.31	133.92	262.94	234.2	62.667	257.44	223.97	111.05	334.57	219.63	132.76	98.03	238.38	151.6	109.72	326	83.938	69.705	287.09	102.5	37.88	319.48	97.518	43.121	255.55	272.64	57.634	230.38	285.64	67.452	343.41	345.9	97.664	298.32	-187.52	1498.1	347.98	-240.89	1215.8	359.98
